<svg width="34" height="33" viewBox="0 0 34 33" fill="none" xmlns="http://www.w3.org/2000/svg">
<path d="M13.2492 3.36548C12.1294 3.66667 11.0635 4.09881 10.0786 4.63571L9.63334 4.88452L7.28572 2.60595L2.68492 7.07143L5.03254 9.35L4.77619 9.78214C4.22302 10.7381 3.77778 11.7726 3.46746 12.8595L3.33254 13.344L2.57757e-06 13.344L1.74986e-06 19.656L3.33254 19.656L3.46746 20.1405C3.77778 21.2274 4.22302 22.2619 4.77619 23.2179L5.03254 23.65L2.68492 25.9286L7.28571 30.394L9.63333 28.1155L10.0786 28.3643C11.0635 28.9012 12.1429 29.3333 13.2492 29.6345L13.7484 29.7655L13.7484 33L20.2516 33L20.2516 29.7655L20.7508 29.6345C21.8706 29.3333 22.9365 28.9012 23.9214 28.3643L24.3667 28.1155L26.7143 30.3941L31.3151 25.9286L28.9675 23.65L29.2238 23.2179C29.7905 22.2619 30.2222 21.2274 30.5325 20.1405L30.6675 19.656L34 19.656L34 13.3441L30.6675 13.344L30.5325 12.8595C30.2222 11.7726 29.7905 10.7381 29.2238 9.78214L28.9675 9.35L31.3151 7.07143L26.7143 2.60595L24.3667 4.88452L23.9214 4.63571C22.9365 4.08572 21.8706 3.66667 20.7508 3.36548L20.2516 3.23452L20.2516 -1.15902e-06L13.7484 -2.01181e-06L13.7484 3.23452L13.2492 3.36548ZM26.2825 16.5C26.2825 21.4631 22.1135 25.5095 17 25.5095C11.8865 25.5095 7.71746 21.4631 7.71746 16.5C7.71746 11.5369 11.8865 7.49048 17 7.49048C22.1135 7.49048 26.2825 11.5238 26.2825 16.5Z" fill="#D6D7DD"/>
</svg>
