<svg width="129" height="46" viewBox="0 0 129 46" fill="none" xmlns="http://www.w3.org/2000/svg">
<path d="M32.537 18.3351L20.5041 30.368L13.1507 23.0146" stroke="#53C5CC" stroke-width="3"/>
<path d="M59.0021 34C58.7888 34 58.6821 33.8933 58.6821 33.68V11.92C58.6821 11.7067 58.7888 11.6 59.0021 11.6H66.7461C68.9648 11.6 70.7355 12.1867 72.0581 13.36C73.3808 14.512 74.0421 16.0587 74.0421 18V27.6C74.0421 29.5413 73.3808 31.0987 72.0581 32.272C70.7355 33.424 68.9648 34 66.7461 34H59.0021ZM61.7541 31.216C61.7541 31.3013 61.7968 31.344 61.8821 31.344H66.8741C68.1115 31.344 69.0928 30.9707 69.8181 30.224C70.5648 29.456 70.9488 28.432 70.9701 27.152V18.448C70.9701 17.168 70.5968 16.1547 69.8501 15.408C69.1248 14.64 68.1328 14.256 66.8741 14.256H61.8821C61.7968 14.256 61.7541 14.2987 61.7541 14.384V31.216ZM84.4154 34.256C82.8367 34.256 81.4607 33.8613 80.2874 33.072C79.114 32.2613 78.2927 31.1413 77.8234 29.712C77.4394 28.56 77.2474 27.2587 77.2474 25.808C77.2474 24.2933 77.4287 23.0133 77.7914 21.968C78.2607 20.56 79.082 19.4613 80.2554 18.672C81.4287 17.8613 82.826 17.456 84.4474 17.456C85.9834 17.456 87.3167 17.8613 88.4474 18.672C89.5994 19.4613 90.4207 20.5493 90.9114 21.936C91.2954 23.024 91.4874 24.304 91.4874 25.776C91.4874 27.2693 91.2954 28.5813 90.9114 29.712C90.442 31.1413 89.6314 32.2613 88.4794 33.072C87.3274 33.8613 85.9727 34.256 84.4154 34.256ZM84.4154 31.6C85.2687 31.6 86.0154 31.3653 86.6554 30.896C87.2954 30.4053 87.754 29.7227 88.0314 28.848C88.266 28.0373 88.3834 27.0347 88.3834 25.84C88.3834 24.6453 88.2767 23.6533 88.0634 22.864C87.786 21.9893 87.3274 21.3173 86.6874 20.848C86.0474 20.3573 85.2687 20.112 84.3514 20.112C83.4767 20.112 82.7194 20.3573 82.0794 20.848C81.4394 21.3173 80.9807 21.9893 80.7034 22.864C80.4687 23.6107 80.3514 24.6027 80.3514 25.84C80.3514 27.0773 80.4687 28.08 80.7034 28.848C80.9594 29.7227 81.4074 30.4053 82.0474 30.896C82.7087 31.3653 83.498 31.6 84.4154 31.6ZM102.453 17.488C104.203 17.488 105.589 18 106.613 19.024C107.637 20.0267 108.149 21.392 108.149 23.12V33.68C108.149 33.8933 108.043 34 107.829 34H105.397C105.184 34 105.077 33.8933 105.077 33.68V23.728C105.077 22.6613 104.768 21.7973 104.149 21.136C103.531 20.4747 102.709 20.144 101.685 20.144C100.683 20.144 99.8614 20.4747 99.2214 21.136C98.5814 21.7973 98.2614 22.6507 98.2614 23.696V33.68C98.2614 33.8933 98.1547 34 97.9414 34H95.5094C95.296 34 95.1894 33.8933 95.1894 33.68V18.032C95.1894 17.8187 95.296 17.712 95.5094 17.712H97.9414C98.1547 17.712 98.2614 17.8187 98.2614 18.032V19.184C98.2614 19.2267 98.272 19.2587 98.2934 19.28C98.336 19.3013 98.368 19.2907 98.3894 19.248C99.3067 18.0747 100.661 17.488 102.453 17.488ZM125.21 23.824C125.295 24.6987 125.327 25.68 125.306 26.768C125.306 26.9813 125.199 27.088 124.986 27.088H114.778C114.692 27.088 114.65 27.1307 114.65 27.216C114.65 27.9413 114.714 28.496 114.842 28.88C115.076 29.7333 115.546 30.4053 116.25 30.896C116.975 31.3653 117.882 31.6 118.97 31.6C120.548 31.6 121.764 30.9493 122.618 29.648C122.724 29.4347 122.863 29.4027 123.034 29.552L124.858 30.768C125.007 30.896 125.039 31.0347 124.954 31.184C124.356 32.144 123.503 32.9013 122.394 33.456C121.306 34.0107 120.068 34.288 118.682 34.288C117.124 34.288 115.812 33.9467 114.746 33.264C113.679 32.5813 112.879 31.6107 112.346 30.352C111.834 29.0933 111.578 27.568 111.578 25.776C111.578 24.2187 111.695 23.0347 111.93 22.224C112.314 20.752 113.082 19.5893 114.234 18.736C115.386 17.8827 116.783 17.456 118.426 17.456C120.58 17.456 122.191 18 123.258 19.088C124.324 20.1547 124.975 21.7333 125.21 23.824ZM118.426 20.112C117.508 20.112 116.751 20.3467 116.154 20.816C115.556 21.264 115.151 21.872 114.938 22.64C114.788 23.1093 114.692 23.7067 114.65 24.432C114.65 24.5173 114.692 24.56 114.778 24.56H122.106C122.191 24.56 122.234 24.5173 122.234 24.432C122.191 23.728 122.127 23.2053 122.042 22.864C121.828 22.032 121.402 21.3707 120.762 20.88C120.143 20.368 119.364 20.112 118.426 20.112Z" fill="#53C5CC"/>
<circle cx="22.9024" cy="22.9023" r="19.1159" transform="rotate(171.385 22.9024 22.9023)" stroke="#53C5CC" stroke-width="2"/>
</svg>
