<svg width="60" height="48" viewBox="0 0 60 48" fill="none" xmlns="http://www.w3.org/2000/svg">
<path d="M12.2951 10.0412C13.9247 10.0412 15.2459 8.71247 15.2459 7.07338C15.2459 5.43428 13.9247 4.10553 12.2951 4.10553C10.6654 4.10553 9.34424 5.43428 9.34424 7.07338C9.34424 8.71247 10.6654 10.0412 12.2951 10.0412Z" fill="#2E365C"/>
<path d="M14.754 26.6117H10.8196V17.4609H1.96716V13.5037H14.754V26.6117Z" fill="#53C5CC"/>
<path d="M52.6229 36.2572C48.5508 36.2572 45.2458 32.9332 45.2458 28.8376V17.8071H49.1803V28.8376C49.1803 30.7469 50.7245 32.3001 52.6229 32.3001C54.5213 32.3001 56.0655 30.7469 56.0655 28.8376H59.9999C59.9999 32.9233 56.695 36.2572 52.6229 36.2572Z" fill="#2E365C"/>
<path d="M7.37705 48C3.30492 48 0 44.676 0 40.5804H3.93443C3.93443 42.4897 5.47869 44.0429 7.37705 44.0429C9.27541 44.0429 10.8197 42.4897 10.8197 40.5804V26.6117H14.7541V40.5804C14.7541 44.676 11.4492 48 7.37705 48Z" fill="#2E365C"/>
<path d="M56.0655 6.92499H38.3606V10.8821H56.0655V6.92499Z" fill="#E2666D"/>
<path d="M49.1803 0H45.2458V17.8071H49.1803V0Z" fill="#E2666D"/>
<path d="M23.5097 30.8452L18.8953 38.3044L22.236 40.395L26.8504 32.9358L23.5097 30.8452Z" fill="#2E365C"/>
<path d="M30.0787 35.2679C28.0525 35.2679 25.9968 34.7139 24.1476 33.5565C21.5902 31.9538 19.8099 29.4509 19.1312 26.5029C18.4525 23.5548 18.9443 20.5177 20.5378 17.9456C22.1312 15.3734 24.6197 13.5828 27.5509 12.9002C30.482 12.2176 33.5017 12.7123 36.0591 14.3149C41.3312 17.6191 42.9542 24.6133 39.6689 29.9159C37.5246 33.3784 33.8361 35.2679 30.0787 35.2679ZM30.1082 16.5705C29.5476 16.5705 28.9869 16.6397 28.4361 16.7683C26.5279 17.2135 24.9148 18.3809 23.8722 20.0528C22.8394 21.7246 22.5148 23.7032 22.9574 25.6224C23.4 27.5416 24.5607 29.1641 26.223 30.2127C29.6558 32.3594 34.1804 31.3009 36.3148 27.8483C38.4492 24.3957 37.3968 19.845 33.964 17.6983C32.7837 16.9464 31.4558 16.5705 30.1082 16.5705Z" fill="#2E365C"/>
</svg>
