<svg id="Warstwa_1" data-name="Warstwa 1" xmlns="http://www.w3.org/2000/svg" viewBox="0 0 33.43 33.17"><defs><style>.cls-1{fill:#d6d7dd;}</style></defs><path class="cls-1" d="M31.65,6.18h0L33,4.85a1.56,1.56,0,0,0,0-2.19L30.77.45a1.56,1.56,0,0,0-2.19,0L27.25,1.78h0Z"/><path class="cls-1" d="M23.16,29.17H4v-22H20.5l3.88-3.88a3.66,3.66,0,0,0-.88-.12H3.66A3.66,3.66,0,0,0,0,6.78V29.5a3.67,3.67,0,0,0,3.66,3.67H23.5a3.67,3.67,0,0,0,3.66-3.67V12.08l-4,4Z"/><polygon class="cls-1" points="8.89 24.54 14.34 23.08 10.35 19.09 8.89 24.54"/><polygon class="cls-1" points="26.54 2.49 26.36 2.68 25.43 3.6 25.38 3.65 24.95 4.09 21.92 7.12 10.85 18.18 15.25 22.58 14.9 22.93 14.9 22.93 23.16 14.67 27.16 10.67 29.34 8.48 29.83 8 30.75 7.08 30.94 6.89 26.54 2.49"/></svg>