<svg width="27" height="31" viewBox="0 0 27 31" fill="none" xmlns="http://www.w3.org/2000/svg">
<path d="M24.9841 3.57699L23.8846 2.31455C21.1881 -0.781444 16.8073 -0.781444 14.1196 2.31455L10.8035 6.12192C11.8943 5.90149 13.0287 5.93155 14.1108 6.20207L15.8125 4.25831C16.6677 3.27641 17.8022 2.73536 19.0064 2.73536C20.2107 2.73536 21.3539 3.27641 22.2004 4.25831L23.2999 5.52075C25.0627 7.54467 25.0627 10.831 23.2999 12.865L17.9243 19.0369C17.68 19.3175 17.392 19.578 17.0866 19.7884C16.8597 19.9487 16.6241 20.089 16.3885 20.1891C16.1703 20.2893 15.9434 20.3695 15.6903 20.4296C14.1719 20.8003 12.6186 20.2793 11.5365 19.0369L10.4369 17.7745C9.64283 16.8627 9.18905 15.6704 9.12796 14.418L7.12085 16.7224C7.46119 17.8446 8.01969 18.8666 8.75272 19.7082L9.85227 20.9707C10.6464 21.8824 11.6325 22.5637 12.7059 22.9345C12.8193 22.9745 12.9327 23.0146 13.0462 23.0447C13.1596 23.0747 13.2818 23.1048 13.3953 23.1348C15.35 23.5757 17.3658 23.0347 18.9366 21.652C19.181 21.4316 19.4079 21.2011 19.6173 20.9707L24.9929 14.7987C27.6719 11.7027 27.6719 6.67298 24.9841 3.57699Z" fill="#76E1E8"/>
<path d="M12.8891 24.798L11.1875 26.7518C9.42469 28.7757 6.56238 28.7757 4.79961 26.7518L3.70006 25.4893C1.9373 23.4654 1.9373 20.1791 3.70006 18.1552L9.07563 11.9832C9.31997 11.7027 9.60795 11.4422 9.91338 11.2318C10.1403 11.0714 10.3759 10.9312 10.6115 10.831C10.8384 10.7308 11.074 10.6506 11.3096 10.5905C12.8193 10.2098 14.3727 10.7408 15.4635 11.9832L16.563 13.2457C17.3571 14.1574 17.8109 15.3497 17.872 16.6021L19.8791 14.2977C19.5388 13.1755 18.9803 12.1535 18.2473 11.3119L17.1477 10.0495C16.3536 9.1377 15.3675 8.45638 14.2941 8.08566C14.1807 8.04559 14.0672 8.00551 13.9538 7.97545C13.8316 7.94539 13.7182 7.90532 13.596 7.88528C13.1509 7.78508 12.7059 7.73499 12.2521 7.73499C10.7424 7.73499 9.25889 8.30609 8.0459 9.36815C7.82773 9.57855 7.59211 9.809 7.3914 10.0394L2.01584 16.2114C-0.671946 19.3074 -0.671946 24.3371 2.01584 27.4231L3.11538 28.6855C5.81189 31.7815 10.1926 31.7815 12.8804 28.6855L16.1965 24.8782C15.1057 25.0986 13.98 25.0685 12.8891 24.798Z" fill="#76E1E8"/>
</svg>
